<?xml version="1.0" encoding="UTF-8"?>
<!DOCTYPE svg PUBLIC "-//W3C//DTD SVG 1.1//EN" "http://www.w3.org/Graphics/SVG/1.1/DTD/svg11.dtd">
<!-- Creator: CorelDRAW 2020 -->
<svg xmlns="http://www.w3.org/2000/svg" xml:space="preserve" width="401px" height="98px" version="1.1" style="shape-rendering:geometricPrecision; text-rendering:geometricPrecision; image-rendering:optimizeQuality; fill-rule:evenodd; clip-rule:evenodd"
viewBox="0 0 62.97 15.38"
 xmlns:xlink="http://www.w3.org/1999/xlink"
 xmlns:xodm="http://www.corel.com/coreldraw/odm/2003">
 <defs>
  <style type="text/css">
   <![CDATA[
    .fil0 {fill:#295B3D}
   ]]>
  </style>
 </defs>
 <g id="Layer_x0020_1">
  <metadata id="CorelCorpID_0Corel-Layer"/>
  <path class="fil0" d="M59.13 11.5c0.04,-0.44 0.07,-0.89 0.09,-1.33 -0.08,0.04 -0.16,0.09 -0.23,0.13 -0.31,0.18 -0.16,-0.1 -0.18,-0.17 -0.03,-0.08 -0.33,0.16 -0.36,0.19 -0.07,0.05 -0.2,0.16 -0.29,0.16 0,-0.05 0.05,-0.15 0.07,-0.21 0.03,-0.09 0.07,-0.3 -0.11,-0.26 -0.09,0.03 -0.2,0.1 -0.31,0.17l1.32 1.32zm-21.69 -11.34l4.28 4.31 -3.28 3.3 -7.56 7.61 -8.56 0 7.56 -7.61 7.56 -7.61zm-34.06 11.82c-0.04,-0.46 -0.08,-0.91 -0.1,-1.36 0.08,0.05 0.16,0.09 0.23,0.14 0.32,0.18 0.16,-0.1 0.19,-0.17 0.02,-0.09 0.32,0.16 0.36,0.19 0.07,0.05 0.19,0.16 0.28,0.15 0.01,-0.05 -0.05,-0.15 -0.07,-0.2 -0.03,-0.09 -0.06,-0.3 0.11,-0.26 0.1,0.02 0.21,0.09 0.32,0.17l-1.32 1.34zm4.45 -4.48l-0.01 -0.01c-0.02,-0.06 -0.04,-0.2 0.08,-0.17 0.02,0.01 0.05,0.02 0.08,0.03l-0.15 0.15zm-0.64 0.64c-0.02,-0.24 -0.03,-0.48 -0.04,-0.72 0.05,0.03 0.11,0.07 0.15,0.1 0.22,0.12 0.11,-0.07 0.13,-0.12 0.02,-0.06 0.22,0.11 0.25,0.13 0.01,0.01 0.04,0.03 0.07,0.05l-0.56 0.56zm0.33 -5.82c-0.23,-0.36 -0.41,-0.92 -0.48,-1.49 -0.06,0.57 -0.24,1.13 -0.47,1.49 -0.02,0.04 -0.01,0.05 0.01,0.03 0.02,-0.02 0.04,-0.04 0.06,-0.06 0.01,-0.01 0.05,-0.04 0.06,-0.02 0.02,0.04 -0.01,0.11 -0.01,0.14 -0.01,0.04 0,0.03 0.01,0.02 0.04,-0.04 0.09,-0.14 0.13,-0.16 0.17,-0.09 -0.41,0.78 -0.47,0.84 -0.03,0.03 -0.01,0.04 0.02,0.02 0.02,-0.02 0.05,-0.03 0.08,-0.05 0.02,-0.01 0.07,-0.05 0.09,-0.02 0.02,0.03 -0.01,0.11 -0.02,0.14 -0.01,0.03 0.01,0.02 0.02,0.01 0.05,-0.03 0.11,-0.12 0.16,-0.15 -0.17,0.33 -0.39,0.62 -0.64,0.85 -0.05,0.05 -0.02,0.06 0.02,0.03 0.04,-0.02 0.08,-0.04 0.12,-0.06 0.02,-0.01 0.11,-0.06 0.13,-0.03 0.03,0.04 -0.01,0.13 -0.03,0.17 -0.02,0.04 0.01,0.03 0.03,0.02 0.08,-0.05 0.18,-0.17 0.26,-0.19 0,-0.01 0.01,-0.01 0.02,0 -0.22,0.42 -0.5,0.8 -0.82,1.09 -0.05,0.06 -0.02,0.07 0.03,0.04 0.05,-0.03 0.1,-0.05 0.15,-0.08 0.04,-0.02 0.14,-0.08 0.17,-0.04 0.04,0.06 -0.02,0.17 -0.04,0.22 -0.02,0.06 0.01,0.04 0.04,0.03 0.11,-0.07 0.23,-0.22 0.32,-0.25 0.08,-0.03 0.07,0.09 0.05,0.15 0,0.03 -0.03,0.09 -0.03,0.12 0.04,0 0.1,-0.06 0.13,-0.09 0.02,-0.02 0.16,-0.16 0.17,-0.12 0,0.02 -0.01,0.05 -0.01,0.08 -0.3,0.44 -0.77,0.84 -1.33,1.13 -0.07,0.04 -0.03,0.05 0.03,0.03 0.07,-0.02 0.13,-0.04 0.2,-0.06 0.04,-0.01 0.17,-0.05 0.21,-0.02 0.05,0.04 -0.02,0.12 -0.04,0.15 -0.03,0.04 0.01,0.03 0.04,0.02 0.14,-0.04 0.29,-0.16 0.42,-0.18 0.1,-0.02 0.08,0.07 0.06,0.11 0,0.02 -0.03,0.05 -0.03,0.07 -0.32,0.45 -0.71,0.85 -1.15,1.17 -0.08,0.06 -0.03,0.08 0.04,0.05 0.08,-0.04 0.15,-0.07 0.23,-0.1 0.05,-0.02 0.2,-0.09 0.25,-0.04 0.05,0.06 -0.03,0.2 -0.06,0.25 -0.03,0.07 0.01,0.05 0.06,0.03 0.15,-0.07 0.33,-0.25 0.48,-0.29 0.12,-0.03 0.1,0.11 0.08,0.17 -0.02,0.04 -0.05,0.11 -0.05,0.15 0.06,0 0.15,-0.08 0.19,-0.11 0.03,-0.02 0.23,-0.19 0.25,-0.13 0.02,0.05 -0.09,0.24 0.12,0.12 0.05,-0.03 0.11,-0.07 0.16,-0.1 -0.01,0.25 -0.04,0.68 -0.08,1.05l-1.63 1.64c-0.39,-0.36 -0.75,-0.77 -1.06,-1.2 -0.01,-0.04 -0.04,-0.08 -0.06,-0.11 -0.02,-0.05 -0.05,-0.18 0.1,-0.15 0.18,0.03 0.41,0.19 0.61,0.25 0.05,0.02 0.11,0.04 0.07,-0.02 -0.04,-0.05 -0.14,-0.17 -0.07,-0.22 0.06,-0.05 0.25,0.01 0.31,0.03 0.1,0.03 0.19,0.06 0.29,0.09 0.09,0.03 0.15,0.01 0.05,-0.04 -0.82,-0.43 -1.51,-1.01 -1.95,-1.66 -0.01,-0.04 -0.02,-0.09 -0.01,-0.11 0.02,-0.07 0.22,0.14 0.24,0.16 0.05,0.05 0.13,0.14 0.19,0.14 0,-0.05 -0.03,-0.13 -0.04,-0.18 -0.02,-0.08 -0.05,-0.26 0.07,-0.22 0.14,0.04 0.32,0.28 0.47,0.37 0.04,0.02 0.09,0.04 0.05,-0.04 -0.02,-0.07 -0.1,-0.24 -0.05,-0.32 0.05,-0.06 0.2,0.02 0.25,0.05 0.07,0.04 0.14,0.08 0.22,0.12 0.07,0.05 0.12,0.03 0.04,-0.05 -0.46,-0.44 -0.87,-0.99 -1.19,-1.61 0.01,0 0.02,0 0.03,0.01 0.11,0.03 0.25,0.21 0.37,0.28 0.04,0.01 0.07,0.03 0.05,-0.03 -0.03,-0.06 -0.09,-0.18 -0.04,-0.24 0.03,-0.05 0.15,0.01 0.19,0.03 0.06,0.03 0.11,0.07 0.17,0.1 0.06,0.03 0.1,0.01 0.03,-0.05 -0.36,-0.33 -0.69,-0.77 -0.94,-1.25 0.07,0.05 0.16,0.18 0.23,0.23 0.03,0.01 0.05,0.03 0.03,-0.02 -0.01,-0.05 -0.06,-0.16 -0.02,-0.21 0.02,-0.04 0.1,0.02 0.13,0.03 0.04,0.03 0.08,0.05 0.12,0.08 0.04,0.03 0.07,0.02 0.02,-0.03 -0.08,-0.09 -0.92,-1.36 -0.68,-1.23 0.06,0.03 0.13,0.17 0.19,0.23 0.01,0.02 0.03,0.03 0.02,-0.02 -0.01,-0.05 -0.04,-0.16 -0.02,-0.2 0.01,-0.04 0.07,0.01 0.09,0.03 0.03,0.02 0.06,0.05 0.09,0.07 0.02,0.03 0.04,0.02 0.01,-0.03 -0.34,-0.54 -0.61,-1.35 -0.7,-2.19 -0.09,0.84 -0.35,1.65 -0.69,2.19 -0.03,0.05 -0.02,0.06 0.01,0.03 0.03,-0.02 0.06,-0.05 0.09,-0.07 0.02,-0.02 0.07,-0.07 0.09,-0.03 0.02,0.04 -0.01,0.15 -0.02,0.2 -0.01,0.05 0.01,0.04 0.02,0.02 0.06,-0.06 0.13,-0.2 0.18,-0.23 0.25,-0.13 -0.59,1.14 -0.67,1.23 -0.05,0.05 -0.02,0.06 0.02,0.03 0.04,-0.03 0.08,-0.05 0.12,-0.08 0.02,-0.01 0.11,-0.07 0.13,-0.03 0.03,0.05 -0.01,0.16 -0.03,0.21 -0.01,0.05 0.01,0.03 0.03,0.02 0.08,-0.05 0.17,-0.18 0.24,-0.23 -0.25,0.48 -0.58,0.92 -0.94,1.25 -0.07,0.06 -0.03,0.08 0.03,0.05 0.06,-0.03 0.11,-0.07 0.17,-0.1 0.04,-0.02 0.16,-0.08 0.19,-0.03 0.05,0.06 -0.02,0.18 -0.04,0.24 -0.02,0.06 0.01,0.04 0.04,0.03 0.12,-0.07 0.26,-0.25 0.38,-0.28 0.01,-0.01 0.02,-0.01 0.03,-0.01 -0.32,0.62 -0.73,1.17 -1.19,1.61 -0.08,0.08 -0.03,0.1 0.04,0.05 0.08,-0.04 0.15,-0.08 0.22,-0.12 0.05,-0.03 0.2,-0.11 0.25,-0.05 0.05,0.08 -0.03,0.25 -0.06,0.32 -0.03,0.08 0.01,0.06 0.06,0.04 0.15,-0.09 0.33,-0.33 0.47,-0.37 0.12,-0.04 0.09,0.14 0.07,0.22 -0.01,0.05 -0.05,0.13 -0.04,0.18 0.06,0 0.14,-0.09 0.19,-0.14 0.02,-0.02 0.22,-0.23 0.24,-0.16 0,0.02 -0.01,0.07 -0.01,0.11 -0.44,0.65 -1.13,1.23 -1.95,1.66 -0.11,0.05 -0.04,0.07 0.05,0.04 0.1,-0.03 0.19,-0.06 0.28,-0.09 0.07,-0.02 0.26,-0.08 0.32,-0.03 0.07,0.05 -0.03,0.17 -0.07,0.22 -0.04,0.06 0.02,0.04 0.07,0.02 0.2,-0.06 0.43,-0.22 0.61,-0.25 0.15,-0.03 0.12,0.1 0.09,0.15 -0.01,0.03 -0.04,0.07 -0.05,0.11 -0.46,0.65 -1.04,1.24 -1.68,1.71 -0.12,0.09 -0.05,0.11 0.07,0.06 0.11,-0.04 0.21,-0.09 0.32,-0.14 0.07,-0.03 0.3,-0.12 0.37,-0.05 0.08,0.09 -0.04,0.28 -0.08,0.37 -0.05,0.09 0.02,0.06 0.08,0.04 0.23,-0.11 0.49,-0.38 0.71,-0.43 0.17,-0.04 0.13,0.17 0.11,0.26 -0.02,0.05 -0.08,0.15 -0.07,0.2 0.09,0.01 0.21,-0.1 0.28,-0.15 0.04,-0.03 0.34,-0.28 0.36,-0.19 0.03,0.07 -0.13,0.35 0.18,0.17 0.08,-0.05 0.15,-0.09 0.24,-0.14 -0.03,0.46 -0.1,1.3 -0.15,1.9l-2.84 2.86 6.97 0c0.02,-0.31 0.05,-0.61 0.06,-0.91 -0.04,0.02 -0.08,0.05 -0.12,0.07 -0.17,0.1 -0.09,-0.05 -0.1,-0.09 -0.02,-0.05 -0.18,0.09 -0.2,0.1 -0.04,0.03 -0.11,0.09 -0.15,0.09 -0.01,-0.03 0.02,-0.08 0.03,-0.11 0.02,-0.05 0.04,-0.17 -0.06,-0.14 -0.11,0.02 -0.26,0.17 -0.38,0.23 -0.04,0.01 -0.07,0.03 -0.05,-0.02 0.03,-0.05 0.09,-0.16 0.05,-0.21 -0.04,-0.03 -0.17,0.02 -0.2,0.03 -0.06,0.03 -0.12,0.06 -0.18,0.08 -0.06,0.03 -0.1,0.02 -0.04,-0.03 0.35,-0.26 0.67,-0.58 0.92,-0.94 0,-0.02 0.02,-0.04 0.03,-0.06 0.01,-0.02 0.03,-0.09 -0.05,-0.08 -0.1,0.02 -0.23,0.11 -0.34,0.14 -0.03,0.01 -0.06,0.02 -0.03,-0.01 0.02,-0.03 0.07,-0.1 0.03,-0.13 -0.03,-0.02 -0.13,0.01 -0.17,0.02 -0.05,0.02 -0.1,0.04 -0.15,0.05 -0.06,0.02 -0.09,0.01 -0.03,-0.02 0.45,-0.23 0.82,-0.55 1.06,-0.9 0.01,-0.03 0.01,-0.05 0.01,-0.07 -0.01,-0.03 -0.12,0.08 -0.13,0.09 -0.03,0.03 -0.07,0.08 -0.11,0.08 0,-0.03 0.02,-0.07 0.03,-0.1 0.01,-0.04 0.02,-0.14 -0.04,-0.12 -0.08,0.02 -0.18,0.15 -0.26,0.2 -0.02,0.01 -0.05,0.03 -0.03,-0.02 0.02,-0.04 0.06,-0.13 0.03,-0.17 -0.02,-0.04 -0.11,0.01 -0.13,0.02 -0.04,0.02 -0.08,0.05 -0.12,0.07 -0.05,0.02 -0.07,0.01 -0.03,-0.03 0.25,-0.24 0.48,-0.54 0.65,-0.88 0,0 -0.01,0 -0.01,0 -0.07,0.02 -0.14,0.12 -0.21,0.16 -0.02,0.01 -0.04,0.02 -0.02,-0.02 0.01,-0.03 0.05,-0.1 0.02,-0.13 -0.02,-0.03 -0.08,0.01 -0.1,0.02 -0.04,0.02 -0.07,0.03 -0.1,0.05 -0.03,0.02 -0.05,0.01 -0.02,-0.02 0.2,-0.19 0.38,-0.42 0.52,-0.68 -0.04,0.02 -0.09,0.09 -0.13,0.12 -0.01,0 -0.02,0.01 -0.02,-0.02 0.01,-0.02 0.04,-0.08 0.02,-0.11 -0.01,-0.02 -0.06,0.01 -0.07,0.02 -0.03,0.01 -0.05,0.03 -0.07,0.04 -0.02,0.02 -0.04,0.01 -0.01,-0.02 0.04,-0.05 0.5,-0.74 0.37,-0.67 -0.03,0.02 -0.07,0.1 -0.1,0.13 -0.01,0.01 -0.02,0.02 -0.01,-0.01 0,-0.03 0.02,-0.09 0.01,-0.11 -0.01,-0.02 -0.04,0 -0.05,0.01 -0.02,0.02 -0.03,0.03 -0.05,0.05 -0.01,0.01 -0.02,0 -0.01,-0.02 0.19,-0.29 0.33,-0.74 0.38,-1.2 0.05,0.46 0.2,0.91 0.38,1.2 0.02,0.02 0.01,0.03 0,0.02 -0.02,-0.02 -0.03,-0.03 -0.05,-0.05 -0.01,-0.01 -0.04,-0.03 -0.05,-0.01 -0.01,0.02 0,0.08 0.01,0.11 0.01,0.03 0,0.02 -0.01,0.01 -0.03,-0.03 -0.07,-0.11 -0.1,-0.13 -0.14,-0.07 0.33,0.62 0.37,0.67 0.02,0.03 0.01,0.04 -0.01,0.02 -0.02,-0.01 -0.05,-0.03 -0.07,-0.04 -0.01,-0.01 -0.06,-0.04 -0.07,-0.02 -0.02,0.03 0,0.09 0.01,0.11 0.01,0.03 0,0.02 -0.01,0.02 -0.04,-0.03 -0.09,-0.1 -0.13,-0.12 0.14,0.26 0.31,0.49 0.51,0.68 0.04,0.03 0.02,0.04 -0.01,0.02 -0.03,-0.02 -0.07,-0.03 -0.1,-0.05 -0.02,-0.01 -0.08,-0.05 -0.1,-0.02 -0.03,0.03 0.01,0.1 0.02,0.13 0.01,0.04 0,0.03 -0.02,0.02 -0.07,-0.04 -0.15,-0.14 -0.21,-0.16 0,0 -0.01,0 -0.01,0 0.17,0.34 0.39,0.64 0.64,0.88 0.05,0.04 0.02,0.05 -0.02,0.03 -0.04,-0.02 -0.08,-0.05 -0.12,-0.07 -0.02,-0.01 -0.11,-0.06 -0.13,-0.02 -0.03,0.04 0.01,0.13 0.03,0.17 0.01,0.05 -0.01,0.03 -0.03,0.02 -0.09,-0.05 -0.18,-0.18 -0.26,-0.2 -0.06,-0.02 -0.05,0.08 -0.04,0.12 0.01,0.03 0.03,0.07 0.02,0.1 -0.03,0 -0.07,-0.05 -0.1,-0.08 -0.01,-0.01 -0.12,-0.12 -0.13,-0.09 0,0.02 0,0.04 0,0.07 0.24,0.35 0.62,0.67 1.07,0.9 0.06,0.03 0.02,0.04 -0.03,0.02 -0.05,-0.01 -0.1,-0.03 -0.15,-0.05 -0.04,-0.01 -0.14,-0.04 -0.17,-0.02 -0.05,0.03 0.01,0.1 0.03,0.13 0.02,0.03 -0.01,0.02 -0.04,0.01 -0.1,-0.03 -0.23,-0.12 -0.33,-0.14 -0.08,-0.01 -0.06,0.06 -0.05,0.08 0.01,0.02 0.02,0.04 0.03,0.06 0.25,0.36 0.57,0.68 0.91,0.94 0.07,0.05 0.03,0.06 -0.03,0.03 -0.06,-0.02 -0.12,-0.05 -0.18,-0.08 -0.04,-0.01 -0.16,-0.06 -0.2,-0.03 -0.04,0.05 0.02,0.16 0.04,0.21 0.03,0.05 0,0.03 -0.04,0.02 -0.12,-0.06 -0.27,-0.21 -0.39,-0.23 -0.09,-0.03 -0.07,0.09 -0.05,0.14 0.01,0.03 0.04,0.08 0.03,0.11 -0.05,0 -0.11,-0.06 -0.15,-0.09 -0.02,-0.01 -0.18,-0.15 -0.2,-0.1 -0.01,0.04 0.07,0.19 -0.1,0.09 -0.04,-0.02 -0.08,-0.05 -0.13,-0.07 0.02,0.22 0.05,0.59 0.07,0.91l1.68 0 0.34 0 1.36 0 -0.02 -0.02c0.03,-0.34 0.06,-0.69 0.08,-1.03 -0.05,0.03 -0.1,0.06 -0.15,0.08 -0.19,0.11 -0.09,-0.06 -0.11,-0.1 -0.01,-0.05 -0.19,0.1 -0.22,0.11 -0.04,0.03 -0.11,0.1 -0.17,0.1 0,-0.03 0.03,-0.09 0.04,-0.13 0.02,-0.05 0.04,-0.18 -0.06,-0.15 -0.13,0.03 -0.29,0.19 -0.43,0.26 -0.04,0.01 -0.08,0.03 -0.05,-0.03 0.03,-0.05 0.1,-0.17 0.05,-0.22 -0.04,-0.04 -0.18,0.01 -0.23,0.03 -0.06,0.03 -0.13,0.06 -0.19,0.09 -0.07,0.03 -0.12,0.01 -0.04,-0.04 0.39,-0.29 0.74,-0.65 1.02,-1.04 0,-0.02 0.02,-0.05 0.03,-0.07 0.01,-0.03 0.03,-0.11 -0.06,-0.09 -0.11,0.02 -0.25,0.12 -0.37,0.16 -0.03,0.01 -0.06,0.02 -0.04,-0.02 0.02,-0.03 0.09,-0.1 0.04,-0.14 -0.03,-0.02 -0.15,0.01 -0.19,0.02 -0.06,0.02 -0.11,0.04 -0.17,0.06 -0.06,0.02 -0.1,0.01 -0.03,-0.03 0.49,-0.26 0.92,-0.61 1.18,-1 0,-0.03 0.01,-0.06 0.01,-0.07 -0.01,-0.04 -0.14,0.08 -0.15,0.1 -0.03,0.02 -0.08,0.08 -0.11,0.08 -0.01,-0.03 0.02,-0.08 0.02,-0.11 0.01,-0.04 0.03,-0.15 -0.04,-0.13 -0.09,0.03 -0.2,0.17 -0.29,0.22 -0.03,0.02 -0.05,0.03 -0.03,-0.02 0.02,-0.04 0.06,-0.15 0.03,-0.19 -0.03,-0.04 -0.12,0.01 -0.15,0.02 -0.04,0.03 -0.09,0.06 -0.13,0.08 -0.05,0.03 -0.08,0.01 -0.03,-0.03 0.28,-0.27 0.53,-0.61 0.72,-0.98 0,0 -0.01,0 -0.01,0 -0.07,0.02 -0.16,0.13 -0.23,0.17 -0.02,0.01 -0.04,0.02 -0.03,-0.01 0.02,-0.04 0.06,-0.12 0.03,-0.15 -0.02,-0.03 -0.1,0.01 -0.12,0.02 -0.03,0.02 -0.07,0.04 -0.1,0.06 -0.04,0.02 -0.06,0.01 -0.02,-0.03 0.22,-0.2 0.42,-0.47 0.57,-0.76 -0.04,0.03 -0.1,0.11 -0.14,0.14 -0.02,0.01 -0.03,0.02 -0.02,-0.02 0.01,-0.02 0.04,-0.09 0.02,-0.12 -0.02,-0.02 -0.07,0.01 -0.08,0.02 -0.03,0.01 -0.05,0.03 -0.08,0.05 -0.02,0.01 -0.04,0.01 -0.01,-0.02 0.05,-0.06 0.56,-0.83 0.41,-0.75 -0.03,0.02 -0.07,0.11 -0.11,0.14 -0.01,0.01 -0.02,0.02 -0.01,-0.01 0,-0.03 0.02,-0.1 0.01,-0.13 -0.01,-0.02 -0.05,0.01 -0.06,0.02 -0.01,0.02 -0.03,0.03 -0.05,0.05 -0.02,0.02 -0.03,0.01 -0.01,-0.02 0.21,-0.33 0.37,-0.82 0.43,-1.33 0.05,0.51 0.21,1 0.42,1.33 0.02,0.03 0.01,0.04 -0.01,0.02 -0.02,-0.02 -0.03,-0.03 -0.05,-0.05 -0.01,-0.01 -0.05,-0.04 -0.06,-0.02 -0.01,0.03 0.01,0.1 0.01,0.13 0.01,0.03 0,0.02 -0.01,0.01 -0.04,-0.03 -0.08,-0.12 -0.11,-0.14 -0.15,-0.08 0.36,0.69 0.41,0.75 0.03,0.03 0.01,0.03 -0.01,0.02 -0.03,-0.02 -0.05,-0.04 -0.07,-0.05 -0.02,-0.01 -0.07,-0.04 -0.09,-0.02 -0.02,0.03 0.01,0.1 0.02,0.12 0.01,0.04 0,0.03 -0.02,0.02 -0.04,-0.03 -0.1,-0.11 -0.14,-0.14 0.15,0.29 0.35,0.56 0.57,0.76 0.04,0.04 0.02,0.05 -0.02,0.03 -0.03,-0.02 -0.07,-0.04 -0.1,-0.06 -0.02,-0.01 -0.1,-0.05 -0.12,-0.02 -0.03,0.03 0.01,0.11 0.03,0.15 0.01,0.03 -0.01,0.02 -0.03,0.01 -0.07,-0.04 -0.16,-0.15 -0.23,-0.17 0,0 -0.01,0 -0.01,0 0.19,0.37 0.44,0.71 0.72,0.98 0.05,0.04 0.02,0.06 -0.03,0.03 -0.04,-0.02 -0.09,-0.05 -0.13,-0.08 -0.03,-0.01 -0.12,-0.06 -0.15,-0.02 -0.03,0.04 0.01,0.15 0.03,0.19 0.02,0.05 0,0.04 -0.03,0.02 -0.09,-0.05 -0.2,-0.19 -0.29,-0.22 -0.07,-0.02 -0.05,0.09 -0.04,0.13 0.01,0.03 0.03,0.08 0.03,0.11 -0.04,0 -0.09,-0.06 -0.12,-0.08 -0.01,-0.02 -0.14,-0.14 -0.15,-0.1 0,0.01 0.01,0.04 0.01,0.07 0.27,0.39 0.69,0.74 1.18,1 0.07,0.04 0.03,0.05 -0.03,0.03 -0.06,-0.02 -0.11,-0.04 -0.17,-0.06 -0.04,-0.01 -0.16,-0.04 -0.19,-0.02 -0.05,0.04 0.02,0.11 0.04,0.14 0.03,0.04 -0.01,0.03 -0.04,0.02 -0.12,-0.04 -0.26,-0.14 -0.37,-0.16 -0.09,-0.02 -0.07,0.06 -0.06,0.09 0.01,0.02 0.03,0.05 0.03,0.07 0.29,0.39 0.63,0.75 1.02,1.04 0.08,0.05 0.03,0.07 -0.03,0.04 -0.07,-0.03 -0.14,-0.06 -0.2,-0.09 -0.05,-0.02 -0.19,-0.07 -0.23,-0.03 -0.05,0.05 0.03,0.17 0.05,0.22 0.03,0.06 -0.01,0.04 -0.05,0.03 -0.14,-0.07 -0.3,-0.23 -0.43,-0.26 -0.1,-0.03 -0.08,0.1 -0.06,0.15 0.01,0.04 0.04,0.1 0.04,0.13 -0.06,0 -0.13,-0.07 -0.17,-0.1 -0.03,-0.01 -0.21,-0.16 -0.22,-0.11 -0.02,0.04 0.08,0.21 -0.11,0.1 -0.05,-0.02 -0.09,-0.05 -0.15,-0.08 0.02,0.25 0.05,0.69 0.09,1.05l0.51 0 3.16 0c0.03,-0.39 0.06,-0.78 0.08,-1.17 -0.07,0.04 -0.14,0.08 -0.2,0.12 -0.26,0.15 -0.13,-0.08 -0.15,-0.15 -0.03,-0.07 -0.28,0.14 -0.31,0.16 -0.06,0.05 -0.16,0.14 -0.24,0.14 0,-0.05 0.04,-0.13 0.06,-0.18 0.02,-0.07 0.05,-0.25 -0.09,-0.22 -0.19,0.05 -0.41,0.28 -0.61,0.36 -0.05,0.03 -0.1,0.05 -0.06,-0.03 0.03,-0.07 0.13,-0.24 0.06,-0.31 -0.05,-0.06 -0.25,0.02 -0.31,0.04 -0.09,0.04 -0.18,0.09 -0.28,0.13 -0.09,0.04 -0.15,0.02 -0.05,-0.06 0.54,-0.4 1.03,-0.9 1.42,-1.46 0.01,-0.02 0.04,-0.06 0.05,-0.08 0.02,-0.05 0.05,-0.16 -0.08,-0.14 -0.16,0.03 -0.35,0.17 -0.52,0.22 -0.04,0.02 -0.09,0.03 -0.05,-0.02 0.03,-0.04 0.11,-0.14 0.05,-0.19 -0.05,-0.03 -0.21,0.01 -0.27,0.03 -0.08,0.02 -0.15,0.05 -0.24,0.07 -0.08,0.03 -0.13,0.02 -0.04,-0.03 0.7,-0.36 1.29,-0.86 1.66,-1.41 0,-0.03 0.01,-0.07 0.01,-0.09 -0.02,-0.06 -0.19,0.12 -0.21,0.14 -0.04,0.03 -0.11,0.11 -0.16,0.11 0,-0.04 0.03,-0.11 0.04,-0.15 0.01,-0.07 0.04,-0.22 -0.06,-0.19 -0.13,0.04 -0.28,0.24 -0.41,0.31 -0.03,0.02 -0.07,0.04 -0.04,-0.02 0.02,-0.07 0.09,-0.21 0.04,-0.28 -0.04,-0.05 -0.17,0.02 -0.21,0.04 -0.06,0.04 -0.12,0.07 -0.18,0.11 -0.07,0.04 -0.11,0.02 -0.04,-0.05 0.39,-0.37 0.74,-0.84 1.01,-1.36 0,0 -0.01,0 -0.02,0 -0.1,0.03 -0.22,0.18 -0.32,0.24 -0.03,0.01 -0.06,0.03 -0.04,-0.02 0.02,-0.05 0.08,-0.16 0.04,-0.21 -0.03,-0.04 -0.13,0.01 -0.17,0.03 -0.04,0.03 -0.09,0.05 -0.14,0.08 -0.05,0.03 -0.08,0.01 -0.03,-0.04 0.31,-0.28 0.59,-0.65 0.8,-1.06 -0.06,0.04 -0.13,0.15 -0.2,0.19 -0.02,0.01 -0.04,0.03 -0.02,-0.02 0.01,-0.04 0.05,-0.13 0.02,-0.17 -0.02,-0.03 -0.09,0.01 -0.11,0.02 -0.04,0.03 -0.07,0.05 -0.11,0.07 -0.03,0.02 -0.05,0.01 -0.01,-0.03 0.06,-0.07 0.78,-1.15 0.57,-1.04 -0.04,0.02 -0.1,0.15 -0.15,0.2 -0.02,0.01 -0.03,0.02 -0.02,-0.02 0.01,-0.04 0.04,-0.13 0.02,-0.18 -0.02,-0.03 -0.07,0.02 -0.08,0.03 -0.03,0.02 -0.05,0.04 -0.07,0.07 -0.03,0.02 -0.04,0.01 -0.02,-0.03 0.29,-0.46 0.52,-1.15 0.59,-1.86 0.08,0.71 0.31,1.4 0.6,1.86 0.02,0.04 0.01,0.05 -0.02,0.03 -0.02,-0.03 -0.04,-0.05 -0.07,-0.07 -0.01,-0.01 -0.06,-0.06 -0.08,-0.03 -0.02,0.05 0.01,0.14 0.02,0.18 0.01,0.04 0,0.03 -0.02,0.02 -0.05,-0.05 -0.11,-0.18 -0.15,-0.2 -0.21,-0.11 0.5,0.97 0.57,1.04 0.04,0.04 0.02,0.05 -0.02,0.03 -0.03,-0.02 -0.06,-0.04 -0.1,-0.07 -0.02,-0.01 -0.09,-0.05 -0.11,-0.02 -0.03,0.04 0.01,0.13 0.02,0.17 0.02,0.05 0,0.03 -0.02,0.02 -0.07,-0.04 -0.14,-0.15 -0.21,-0.19 0.22,0.41 0.5,0.78 0.81,1.06 0.05,0.05 0.02,0.07 -0.03,0.04 -0.05,-0.03 -0.1,-0.05 -0.14,-0.08 -0.04,-0.02 -0.14,-0.07 -0.17,-0.03 -0.04,0.05 0.02,0.16 0.04,0.21 0.02,0.05 -0.01,0.03 -0.04,0.02 -0.1,-0.06 -0.22,-0.21 -0.32,-0.24 -0.01,0 -0.02,0 -0.02,0 0.27,0.52 0.62,0.99 1.01,1.36 0.07,0.07 0.03,0.09 -0.04,0.05 -0.06,-0.04 -0.12,-0.07 -0.18,-0.11 -0.05,-0.02 -0.18,-0.09 -0.21,-0.04 -0.05,0.07 0.02,0.21 0.04,0.28 0.03,0.06 -0.01,0.04 -0.04,0.02 -0.13,-0.07 -0.28,-0.27 -0.41,-0.31 -0.1,-0.03 -0.07,0.12 -0.06,0.19 0.01,0.04 0.04,0.11 0.04,0.15 -0.05,0 -0.12,-0.08 -0.16,-0.11 -0.02,-0.02 -0.19,-0.2 -0.21,-0.14 0,0.02 0.01,0.06 0.01,0.09 0.37,0.55 0.96,1.05 1.66,1.41 0.09,0.05 0.04,0.06 -0.04,0.03 -0.09,-0.02 -0.16,-0.05 -0.24,-0.07 -0.06,-0.02 -0.22,-0.06 -0.27,-0.03 -0.07,0.05 0.02,0.15 0.05,0.19 0.04,0.05 -0.01,0.04 -0.05,0.02 -0.17,-0.05 -0.37,-0.19 -0.52,-0.22 -0.13,-0.02 -0.1,0.09 -0.08,0.14 0.01,0.02 0.04,0.06 0.05,0.08 0.39,0.56 0.88,1.06 1.42,1.46 0.1,0.08 0.04,0.1 -0.05,0.06 -0.1,-0.04 -0.19,-0.09 -0.28,-0.13 -0.06,-0.02 -0.26,-0.1 -0.31,-0.04 -0.07,0.07 0.03,0.24 0.06,0.31 0.04,0.08 -0.01,0.06 -0.06,0.03 -0.2,-0.08 -0.42,-0.31 -0.61,-0.36 -0.15,-0.03 -0.11,0.15 -0.09,0.22 0.02,0.05 0.06,0.13 0.06,0.18 -0.08,0 -0.18,-0.09 -0.24,-0.14 -0.03,-0.02 -0.29,-0.23 -0.31,-0.16 -0.02,0.07 0.11,0.3 -0.15,0.15 -0.06,-0.04 -0.13,-0.08 -0.2,-0.12 0.01,0.29 0.05,0.74 0.09,1.17l3.17 0 0.88 0c0.03,-0.31 0.05,-0.61 0.07,-0.91 -0.05,0.02 -0.09,0.05 -0.13,0.07 -0.17,0.1 -0.09,-0.05 -0.1,-0.09 -0.01,-0.05 -0.18,0.09 -0.2,0.1 -0.03,0.03 -0.1,0.09 -0.15,0.09 0,-0.03 0.03,-0.08 0.04,-0.11 0.01,-0.05 0.03,-0.17 -0.06,-0.14 -0.12,0.02 -0.26,0.17 -0.39,0.23 -0.03,0.01 -0.07,0.03 -0.04,-0.02 0.02,-0.05 0.09,-0.16 0.04,-0.21 -0.04,-0.03 -0.16,0.02 -0.2,0.03 -0.06,0.03 -0.12,0.06 -0.18,0.08 -0.06,0.03 -0.1,0.02 -0.03,-0.03 0.35,-0.26 0.66,-0.58 0.91,-0.94 0.01,-0.02 0.03,-0.04 0.03,-0.06 0.02,-0.02 0.03,-0.09 -0.05,-0.08 -0.1,0.02 -0.22,0.11 -0.33,0.14 -0.03,0.01 -0.06,0.02 -0.04,-0.01 0.02,-0.03 0.08,-0.1 0.04,-0.13 -0.03,-0.02 -0.14,0.01 -0.17,0.02 -0.06,0.02 -0.11,0.04 -0.16,0.05 -0.05,0.02 -0.09,0.01 -0.03,-0.02 0.45,-0.23 0.83,-0.55 1.07,-0.9 0,-0.03 0.01,-0.05 0,-0.07 -0.01,-0.03 -0.12,0.08 -0.13,0.09 -0.03,0.03 -0.07,0.08 -0.1,0.08 0,-0.03 0.02,-0.07 0.02,-0.1 0.01,-0.04 0.03,-0.14 -0.04,-0.12 -0.08,0.02 -0.17,0.15 -0.26,0.2 -0.02,0.01 -0.04,0.03 -0.03,-0.02 0.02,-0.04 0.06,-0.13 0.03,-0.17 -0.02,-0.04 -0.1,0.01 -0.13,0.02 -0.04,0.02 -0.08,0.05 -0.12,0.07 -0.04,0.02 -0.07,0.01 -0.02,-0.03 0.25,-0.24 0.47,-0.54 0.65,-0.88 -0.01,0 -0.01,0 -0.02,0 -0.06,0.02 -0.14,0.12 -0.21,0.16 -0.01,0.01 -0.03,0.02 -0.02,-0.02 0.01,-0.03 0.05,-0.1 0.02,-0.13 -0.01,-0.03 -0.08,0.01 -0.1,0.02 -0.03,0.02 -0.06,0.03 -0.1,0.05 -0.03,0.02 -0.05,0.01 -0.01,-0.02 0.2,-0.19 0.38,-0.42 0.51,-0.68 -0.04,0.02 -0.08,0.09 -0.13,0.12 -0.01,0 -0.02,0.01 -0.01,-0.02 0.01,-0.02 0.03,-0.08 0.01,-0.11 -0.01,-0.02 -0.06,0.01 -0.07,0.02 -0.02,0.01 -0.04,0.03 -0.07,0.04 -0.02,0.02 -0.03,0.01 -0.01,-0.02 0.05,-0.05 0.51,-0.74 0.37,-0.67 -0.03,0.02 -0.06,0.1 -0.1,0.13 -0.01,0.01 -0.01,0.02 -0.01,-0.01 0.01,-0.03 0.03,-0.09 0.01,-0.11 -0.01,-0.02 -0.04,0 -0.05,0.01 -0.01,0.02 -0.03,0.03 -0.04,0.05 -0.02,0.01 -0.03,0 -0.01,-0.02 0.18,-0.29 0.33,-0.74 0.38,-1.2 0.05,0.46 0.19,0.91 0.38,1.2 0.02,0.02 0.01,0.03 -0.01,0.02 -0.02,-0.02 -0.03,-0.03 -0.05,-0.05 -0.01,-0.01 -0.04,-0.03 -0.05,-0.01 -0.01,0.02 0.01,0.08 0.01,0.11 0.01,0.03 0,0.02 -0.01,0.01 -0.03,-0.03 -0.07,-0.11 -0.1,-0.13 -0.13,-0.07 0.33,0.62 0.37,0.67 0.03,0.03 0.01,0.04 -0.01,0.02 -0.02,-0.01 -0.04,-0.03 -0.06,-0.04 -0.02,-0.01 -0.07,-0.04 -0.08,-0.02 -0.02,0.03 0.01,0.09 0.02,0.11 0.01,0.03 -0.01,0.02 -0.02,0.02 -0.04,-0.03 -0.09,-0.1 -0.13,-0.12 0.14,0.26 0.32,0.49 0.52,0.68 0.03,0.03 0.01,0.04 -0.02,0.02 -0.03,-0.02 -0.06,-0.03 -0.09,-0.05 -0.02,-0.01 -0.09,-0.05 -0.11,-0.02 -0.02,0.03 0.01,0.1 0.02,0.13 0.02,0.04 0,0.03 -0.02,0.02 -0.07,-0.04 -0.14,-0.14 -0.2,-0.16 -0.01,0 -0.02,0 -0.02,0 0.17,0.34 0.4,0.64 0.65,0.88 0.04,0.04 0.02,0.05 -0.02,0.03 -0.04,-0.02 -0.08,-0.05 -0.12,-0.07 -0.03,-0.01 -0.11,-0.06 -0.14,-0.02 -0.03,0.04 0.02,0.13 0.03,0.17 0.02,0.05 0,0.03 -0.03,0.02 -0.08,-0.05 -0.18,-0.18 -0.26,-0.2 -0.06,-0.02 -0.05,0.08 -0.04,0.12 0.01,0.03 0.03,0.07 0.03,0.1 -0.03,0 -0.08,-0.05 -0.1,-0.08 -0.02,-0.01 -0.13,-0.12 -0.14,-0.09 0,0.02 0.01,0.04 0.01,0.07 0.24,0.35 0.62,0.67 1.06,0.9 0.06,0.03 0.03,0.04 -0.03,0.02 -0.05,-0.01 -0.1,-0.03 -0.15,-0.05 -0.03,-0.01 -0.14,-0.04 -0.17,-0.02 -0.04,0.03 0.01,0.1 0.03,0.13 0.03,0.03 0,0.02 -0.03,0.01 -0.11,-0.03 -0.23,-0.12 -0.34,-0.14 -0.08,-0.01 -0.06,0.06 -0.05,0.08 0.01,0.02 0.03,0.04 0.03,0.06 0.26,0.36 0.57,0.68 0.92,0.94 0.06,0.05 0.03,0.06 -0.04,0.03 -0.06,-0.02 -0.11,-0.05 -0.17,-0.08 -0.04,-0.01 -0.17,-0.06 -0.2,-0.03 -0.05,0.05 0.02,0.16 0.04,0.21 0.02,0.05 -0.01,0.03 -0.04,0.02 -0.13,-0.06 -0.27,-0.21 -0.39,-0.23 -0.1,-0.03 -0.08,0.09 -0.06,0.14 0.01,0.03 0.04,0.08 0.04,0.11 -0.05,0 -0.12,-0.06 -0.16,-0.09 -0.02,-0.01 -0.18,-0.15 -0.2,-0.1 -0.01,0.04 0.08,0.19 -0.09,0.09 -0.04,-0.02 -0.09,-0.05 -0.13,-0.07 0.01,0.22 0.04,0.59 0.07,0.91l1.01 0 9.04 -9.1 -1.1 -1.11 -4.63 -4.66 -4.47 4.49 -4.47 -4.49 -4.64 4.66 -1.78 1.79c-0.22,-0.22 -0.43,-0.46 -0.61,-0.71 0,-0.02 -0.03,-0.05 -0.03,-0.07 -0.02,-0.04 -0.04,-0.13 0.06,-0.11 0.13,0.02 0.28,0.14 0.42,0.18 0.03,0.01 0.07,0.02 0.04,-0.02 -0.02,-0.03 -0.09,-0.11 -0.04,-0.15 0.04,-0.03 0.17,0.01 0.21,0.02 0.07,0.02 0.13,0.04 0.2,0.06 0.06,0.02 0.1,0.01 0.03,-0.03 -0.56,-0.29 -1.03,-0.69 -1.33,-1.13 -0.01,-0.03 -0.01,-0.06 -0.01,-0.08 0.01,-0.04 0.15,0.1 0.17,0.12 0.03,0.03 0.09,0.09 0.13,0.09 0,-0.03 -0.03,-0.09 -0.03,-0.12 -0.02,-0.06 -0.04,-0.18 0.04,-0.15 0.1,0.03 0.22,0.18 0.33,0.25 0.03,0.01 0.06,0.03 0.04,-0.03 -0.02,-0.05 -0.08,-0.16 -0.04,-0.22 0.03,-0.04 0.13,0.02 0.17,0.04 0.05,0.03 0.1,0.05 0.15,0.08 0.05,0.03 0.08,0.02 0.03,-0.04 -0.32,-0.29 -0.6,-0.67 -0.82,-1.09 0.01,-0.01 0.02,-0.01 0.02,0 0.08,0.02 0.18,0.14 0.26,0.19 0.02,0.01 0.05,0.02 0.03,-0.02 -0.02,-0.04 -0.06,-0.13 -0.03,-0.17 0.02,-0.03 0.11,0.02 0.13,0.03 0.04,0.02 0.08,0.04 0.12,0.06 0.04,0.03 0.07,0.02 0.02,-0.03 -0.25,-0.23 -0.47,-0.52 -0.65,-0.85 0.06,0.03 0.12,0.12 0.17,0.15 0.01,0.01 0.03,0.02 0.02,-0.01 -0.01,-0.03 -0.04,-0.11 -0.02,-0.14 0.01,-0.03 0.07,0.01 0.09,0.02 0.03,0.02 0.06,0.03 0.08,0.05 0.03,0.02 0.05,0.01 0.02,-0.02 -0.06,-0.06 -0.64,-0.93 -0.47,-0.84 0.04,0.02 0.09,0.12 0.13,0.16 0.01,0.01 0.02,0.02 0.01,-0.02 0,-0.03 -0.03,-0.1 -0.01,-0.14 0.01,-0.02 0.05,0.01 0.06,0.02 0.02,0.02 0.04,0.04 0.06,0.06 0.02,0.02 0.03,0.01 0.01,-0.03zm47.7 5.25c0.03,-0.33 0.05,-0.65 0.07,-0.97 -0.06,0.03 -0.11,0.06 -0.16,0.09 -0.22,0.12 -0.11,-0.07 -0.13,-0.12 -0.02,-0.05 -0.22,0.11 -0.24,0.13 -0.05,0.04 -0.14,0.11 -0.2,0.11 0,-0.04 0.04,-0.1 0.05,-0.14 0.02,-0.06 0.04,-0.21 -0.07,-0.18 -0.08,0.02 -0.17,0.08 -0.25,0.14l0.93 0.94zm-0.31 -6.07c0.23,-0.37 0.42,-0.92 0.48,-1.5 0.06,0.58 0.24,1.13 0.47,1.5 0.03,0.03 0.01,0.04 -0.01,0.02 -0.02,-0.02 -0.03,-0.03 -0.05,-0.05 -0.02,-0.01 -0.06,-0.05 -0.07,-0.02 -0.01,0.03 0.01,0.11 0.02,0.14 0,0.03 -0.01,0.02 -0.02,0.01 -0.04,-0.04 -0.09,-0.14 -0.12,-0.16 -0.17,-0.09 0.4,0.78 0.46,0.84 0.03,0.04 0.01,0.05 -0.01,0.03 -0.03,-0.02 -0.06,-0.04 -0.09,-0.06 -0.02,-0.01 -0.07,-0.04 -0.09,-0.02 -0.02,0.04 0.01,0.11 0.02,0.14 0.01,0.04 0,0.03 -0.02,0.02 -0.05,-0.04 -0.11,-0.13 -0.16,-0.16 0.17,0.33 0.39,0.63 0.65,0.86 0.04,0.04 0.01,0.05 -0.03,0.03 -0.04,-0.02 -0.08,-0.05 -0.12,-0.07 -0.02,-0.01 -0.1,-0.05 -0.13,-0.02 -0.03,0.04 0.02,0.13 0.03,0.17 0.02,0.04 0,0.03 -0.03,0.01 -0.08,-0.04 -0.18,-0.17 -0.25,-0.19 -0.01,0 -0.02,0 -0.02,0 0.21,0.42 0.49,0.8 0.81,1.1 0.05,0.05 0.02,0.06 -0.03,0.04 -0.05,-0.03 -0.1,-0.06 -0.15,-0.09 -0.03,-0.02 -0.14,-0.07 -0.17,-0.03 -0.04,0.05 0.02,0.17 0.04,0.22 0.02,0.05 -0.01,0.04 -0.04,0.02 -0.1,-0.06 -0.22,-0.22 -0.32,-0.25 -0.08,-0.03 -0.06,0.1 -0.05,0.15 0.01,0.03 0.03,0.09 0.03,0.12 -0.04,0 -0.1,-0.06 -0.13,-0.09 -0.02,-0.02 -0.15,-0.16 -0.17,-0.11 0,0.01 0.01,0.05 0.01,0.08 0.3,0.44 0.77,0.84 1.33,1.13 0.08,0.03 0.04,0.04 -0.03,0.02 -0.07,-0.02 -0.13,-0.04 -0.19,-0.06 -0.05,-0.01 -0.18,-0.05 -0.22,-0.02 -0.05,0.04 0.02,0.12 0.05,0.16 0.02,0.03 -0.01,0.02 -0.05,0.01 -0.14,-0.04 -0.29,-0.15 -0.42,-0.17 -0.1,-0.02 -0.08,0.06 -0.06,0.1 0.01,0.02 0.03,0.05 0.04,0.07 0.31,0.45 0.7,0.85 1.14,1.18 0.08,0.06 0.04,0.07 -0.04,0.04 -0.08,-0.03 -0.15,-0.07 -0.22,-0.1 -0.05,-0.02 -0.21,-0.08 -0.25,-0.04 -0.06,0.07 0.02,0.2 0.05,0.26 0.03,0.06 -0.01,0.04 -0.06,0.02 -0.15,-0.07 -0.33,-0.25 -0.48,-0.29 -0.12,-0.03 -0.09,0.12 -0.07,0.18 0.01,0.04 0.05,0.1 0.04,0.14 -0.06,0 -0.14,-0.07 -0.19,-0.11 -0.03,-0.02 -0.23,-0.18 -0.25,-0.13 -0.01,0.05 0.09,0.24 -0.12,0.12 -0.05,-0.03 -0.11,-0.06 -0.16,-0.09 0.01,0.32 0.07,0.94 0.11,1.35l1.68 1.7c0.39,-0.36 0.75,-0.77 1.05,-1.2 0.01,-0.03 0.05,-0.08 0.06,-0.1 0.02,-0.06 0.06,-0.19 -0.09,-0.16 -0.19,0.03 -0.42,0.2 -0.62,0.26 -0.05,0.02 -0.1,0.03 -0.06,-0.02 0.03,-0.06 0.14,-0.18 0.06,-0.23 -0.05,-0.04 -0.25,0.01 -0.31,0.03 -0.09,0.03 -0.19,0.06 -0.28,0.09 -0.1,0.03 -0.16,0.02 -0.06,-0.04 0.82,-0.42 1.52,-1.01 1.95,-1.65 0.01,-0.04 0.02,-0.09 0.01,-0.12 -0.01,-0.07 -0.21,0.14 -0.24,0.17 -0.05,0.04 -0.13,0.14 -0.19,0.13 0,-0.04 0.04,-0.13 0.05,-0.18 0.02,-0.07 0.04,-0.25 -0.07,-0.22 -0.15,0.05 -0.33,0.28 -0.48,0.37 -0.04,0.02 -0.08,0.05 -0.05,-0.03 0.03,-0.08 0.11,-0.25 0.05,-0.32 -0.04,-0.06 -0.2,0.02 -0.24,0.04 -0.08,0.05 -0.15,0.09 -0.22,0.13 -0.08,0.04 -0.13,0.02 -0.04,-0.06 0.45,-0.43 0.86,-0.99 1.18,-1.6 -0.01,0 -0.02,0 -0.03,0 -0.11,0.03 -0.25,0.21 -0.37,0.28 -0.03,0.02 -0.07,0.04 -0.04,-0.03 0.02,-0.05 0.08,-0.18 0.04,-0.24 -0.04,-0.04 -0.16,0.02 -0.19,0.04 -0.06,0.03 -0.12,0.06 -0.18,0.09 -0.06,0.03 -0.09,0.02 -0.03,-0.04 0.37,-0.34 0.69,-0.77 0.95,-1.25 -0.08,0.04 -0.16,0.17 -0.24,0.22 -0.02,0.02 -0.05,0.03 -0.03,-0.02 0.02,-0.05 0.06,-0.15 0.03,-0.2 -0.03,-0.04 -0.11,0.01 -0.14,0.03 -0.04,0.02 -0.08,0.05 -0.12,0.08 -0.04,0.02 -0.06,0.01 -0.02,-0.04 0.08,-0.09 0.93,-1.36 0.68,-1.23 -0.06,0.03 -0.12,0.18 -0.18,0.24 -0.02,0.01 -0.04,0.03 -0.02,-0.03 0.01,-0.04 0.04,-0.15 0.02,-0.2 -0.02,-0.04 -0.08,0.01 -0.1,0.03 -0.03,0.03 -0.05,0.05 -0.08,0.08 -0.03,0.03 -0.05,0.01 -0.02,-0.04 0.34,-0.53 0.61,-1.34 0.7,-2.19 0.09,0.85 0.36,1.66 0.7,2.19 0.03,0.05 0.01,0.07 -0.02,0.04 -0.03,-0.03 -0.06,-0.05 -0.08,-0.08 -0.02,-0.02 -0.08,-0.07 -0.1,-0.03 -0.02,0.05 0.01,0.16 0.02,0.2 0.01,0.06 0,0.04 -0.02,0.03 -0.06,-0.06 -0.13,-0.21 -0.18,-0.24 -0.25,-0.13 0.6,1.14 0.68,1.23 0.04,0.05 0.02,0.06 -0.02,0.04 -0.05,-0.03 -0.08,-0.06 -0.13,-0.08 -0.02,-0.02 -0.11,-0.07 -0.13,-0.03 -0.03,0.05 0.01,0.15 0.03,0.2 0.02,0.05 -0.01,0.04 -0.03,0.02 -0.08,-0.05 -0.16,-0.18 -0.24,-0.22 0.25,0.48 0.58,0.91 0.95,1.25 0.06,0.06 0.03,0.07 -0.03,0.04 -0.06,-0.03 -0.12,-0.06 -0.18,-0.09 -0.03,-0.02 -0.16,-0.08 -0.19,-0.04 -0.04,0.06 0.02,0.19 0.04,0.24 0.03,0.07 -0.01,0.05 -0.04,0.03 -0.12,-0.07 -0.26,-0.25 -0.37,-0.28 -0.02,0 -0.03,0 -0.03,0 0.31,0.61 0.72,1.17 1.18,1.6 0.08,0.08 0.04,0.1 -0.04,0.06 -0.07,-0.04 -0.14,-0.08 -0.22,-0.13 -0.05,-0.02 -0.2,-0.1 -0.24,-0.04 -0.06,0.07 0.02,0.24 0.05,0.32 0.03,0.08 -0.01,0.05 -0.05,0.03 -0.16,-0.09 -0.33,-0.32 -0.48,-0.37 -0.11,-0.03 -0.09,0.15 -0.07,0.22 0.01,0.05 0.05,0.14 0.05,0.18 -0.06,0.01 -0.15,-0.09 -0.19,-0.13 -0.03,-0.03 -0.23,-0.24 -0.25,-0.17 0,0.03 0.01,0.08 0.01,0.12 0.44,0.64 1.14,1.23 1.95,1.65 0.11,0.06 0.05,0.07 -0.05,0.04 -0.09,-0.03 -0.19,-0.06 -0.28,-0.09 -0.06,-0.02 -0.26,-0.07 -0.32,-0.03 -0.07,0.05 0.03,0.17 0.07,0.23 0.04,0.05 -0.01,0.04 -0.07,0.02 -0.19,-0.06 -0.42,-0.23 -0.61,-0.26 -0.15,-0.03 -0.12,0.1 -0.09,0.16 0.01,0.02 0.04,0.07 0.05,0.1 0.47,0.66 1.04,1.24 1.68,1.71 0.12,0.09 0.05,0.12 -0.06,0.07 -0.11,-0.05 -0.22,-0.1 -0.33,-0.15 -0.07,-0.03 -0.3,-0.12 -0.36,-0.05 -0.09,0.09 0.03,0.29 0.07,0.37 0.05,0.09 -0.01,0.07 -0.08,0.04 -0.23,-0.1 -0.49,-0.37 -0.71,-0.43 -0.17,-0.04 -0.13,0.17 -0.1,0.26 0.02,0.06 0.07,0.16 0.06,0.21 -0.08,0 -0.21,-0.11 -0.28,-0.16 -0.04,-0.03 -0.33,-0.27 -0.36,-0.19 -0.02,0.07 0.13,0.35 -0.18,0.17 -0.07,-0.04 -0.15,-0.09 -0.23,-0.13 0.02,0.45 0.09,1.27 0.14,1.88l3.31 3.33 -7.71 0c-0.03,-0.32 -0.06,-0.69 -0.07,-0.91 0.04,0.02 0.08,0.05 0.12,0.07 0.17,0.1 0.09,-0.05 0.1,-0.09 0.02,-0.05 0.18,0.09 0.2,0.1 0.04,0.03 0.11,0.09 0.15,0.09 0.01,-0.03 -0.02,-0.08 -0.03,-0.11 -0.02,-0.05 -0.04,-0.17 0.06,-0.14 0.11,0.02 0.26,0.17 0.38,0.23 0.04,0.01 0.07,0.03 0.05,-0.02 -0.03,-0.05 -0.09,-0.16 -0.05,-0.21 0.04,-0.03 0.16,0.02 0.2,0.03 0.06,0.03 0.12,0.06 0.18,0.08 0.06,0.03 0.1,0.02 0.04,-0.03 -0.35,-0.26 -0.67,-0.58 -0.92,-0.94 0,-0.02 -0.02,-0.04 -0.03,-0.06 -0.01,-0.02 -0.03,-0.09 0.05,-0.08 0.1,0.02 0.23,0.11 0.34,0.14 0.03,0.01 0.05,0.02 0.03,-0.01 -0.02,-0.03 -0.07,-0.1 -0.03,-0.13 0.03,-0.02 0.13,0.01 0.17,0.02 0.05,0.02 0.1,0.04 0.15,0.05 0.06,0.02 0.09,0.01 0.03,-0.02 -0.45,-0.23 -0.83,-0.55 -1.06,-0.9 -0.01,-0.03 -0.01,-0.05 -0.01,-0.07 0.01,-0.03 0.12,0.08 0.13,0.09 0.03,0.03 0.07,0.08 0.11,0.08 0,-0.03 -0.02,-0.07 -0.03,-0.1 -0.01,-0.04 -0.02,-0.14 0.04,-0.12 0.08,0.02 0.18,0.15 0.26,0.2 0.02,0.01 0.05,0.03 0.03,-0.02 -0.02,-0.04 -0.06,-0.13 -0.03,-0.17 0.02,-0.04 0.11,0.01 0.13,0.02 0.04,0.02 0.08,0.05 0.12,0.07 0.04,0.02 0.07,0.01 0.03,-0.03 -0.25,-0.24 -0.48,-0.54 -0.65,-0.88 0,0 0.01,0 0.01,0 0.07,0.02 0.14,0.12 0.21,0.16 0.02,0.01 0.03,0.02 0.02,-0.02 -0.01,-0.03 -0.05,-0.1 -0.02,-0.13 0.02,-0.03 0.08,0.01 0.1,0.02 0.04,0.02 0.07,0.03 0.1,0.05 0.03,0.02 0.05,0.01 0.02,-0.02 -0.2,-0.19 -0.38,-0.42 -0.52,-0.68 0.04,0.02 0.09,0.09 0.13,0.12 0.01,0 0.02,0.01 0.02,-0.02 -0.01,-0.02 -0.04,-0.08 -0.02,-0.11 0.01,-0.02 0.06,0.01 0.07,0.02 0.03,0.01 0.05,0.03 0.07,0.04 0.02,0.02 0.04,0.01 0.01,-0.02 -0.04,-0.05 -0.51,-0.74 -0.37,-0.67 0.03,0.02 0.07,0.1 0.1,0.13 0.01,0.01 0.02,0.02 0.01,-0.01 0,-0.03 -0.02,-0.09 -0.01,-0.11 0.01,-0.02 0.04,0 0.05,0.01 0.02,0.02 0.03,0.03 0.05,0.05 0.01,0.01 0.02,0 0.01,-0.02 -0.19,-0.29 -0.33,-0.74 -0.38,-1.2 -0.05,0.46 -0.2,0.91 -0.39,1.2 -0.01,0.02 0,0.03 0.01,0.02 0.02,-0.02 0.03,-0.03 0.05,-0.05 0.01,-0.01 0.04,-0.03 0.05,-0.01 0.01,0.02 0,0.08 -0.01,0.11 -0.01,0.03 0,0.02 0.01,0.01 0.03,-0.03 0.07,-0.11 0.1,-0.13 0.14,-0.07 -0.33,0.62 -0.37,0.67 -0.02,0.03 -0.01,0.04 0.01,0.02 0.02,-0.01 0.05,-0.03 0.07,-0.04 0.01,-0.01 0.06,-0.04 0.07,-0.02 0.02,0.03 -0.01,0.09 -0.01,0.11 -0.01,0.03 0,0.02 0.01,0.02 0.04,-0.03 0.09,-0.1 0.13,-0.12 -0.14,0.26 -0.31,0.49 -0.51,0.68 -0.04,0.03 -0.02,0.04 0.01,0.02 0.03,-0.02 0.07,-0.03 0.1,-0.05 0.02,-0.01 0.08,-0.05 0.1,-0.02 0.03,0.03 -0.01,0.1 -0.02,0.13 -0.01,0.04 0,0.03 0.02,0.02 0.07,-0.04 0.14,-0.14 0.21,-0.16 0,0 0.01,0 0.01,0 -0.17,0.34 -0.39,0.64 -0.64,0.88 -0.05,0.04 -0.02,0.05 0.02,0.03 0.04,-0.02 0.08,-0.05 0.12,-0.07 0.02,-0.01 0.11,-0.06 0.13,-0.02 0.03,0.04 -0.01,0.13 -0.03,0.17 -0.01,0.05 0.01,0.03 0.03,0.02 0.08,-0.05 0.18,-0.18 0.26,-0.2 0.06,-0.02 0.05,0.08 0.04,0.12 -0.01,0.03 -0.03,0.07 -0.02,0.1 0.03,0 0.07,-0.05 0.1,-0.08 0.01,-0.01 0.12,-0.12 0.13,-0.09 0,0.02 0,0.04 0,0.07 -0.24,0.35 -0.62,0.67 -1.07,0.9 -0.06,0.03 -0.02,0.04 0.03,0.02 0.05,-0.01 0.1,-0.03 0.15,-0.05 0.04,-0.01 0.14,-0.04 0.17,-0.02 0.05,0.03 -0.01,0.1 -0.03,0.13 -0.02,0.03 0.01,0.02 0.04,0.01 0.1,-0.03 0.23,-0.12 0.33,-0.14 0.08,-0.01 0.06,0.06 0.05,0.08 -0.01,0.02 -0.02,0.04 -0.03,0.06 -0.25,0.36 -0.57,0.68 -0.91,0.94 -0.07,0.05 -0.03,0.06 0.03,0.03 0.06,-0.02 0.12,-0.05 0.18,-0.08 0.04,-0.01 0.16,-0.06 0.2,-0.03 0.04,0.05 -0.02,0.16 -0.04,0.21 -0.03,0.05 0,0.03 0.04,0.02 0.12,-0.06 0.27,-0.21 0.39,-0.23 0.09,-0.03 0.07,0.09 0.05,0.14 -0.01,0.03 -0.04,0.08 -0.03,0.11 0.05,0 0.11,-0.06 0.15,-0.09 0.02,-0.01 0.18,-0.15 0.2,-0.1 0.01,0.04 -0.07,0.19 0.1,0.09 0.04,-0.02 0.08,-0.05 0.12,-0.07 -0.01,0.3 -0.03,0.6 -0.06,0.91l-3.91 0c-0.03,-0.36 -0.07,-0.78 -0.08,-1.02 0.05,0.03 0.1,0.06 0.15,0.09 0.2,0.12 0.1,-0.07 0.12,-0.11 0.02,-0.06 0.21,0.1 0.23,0.12 0.05,0.03 0.13,0.1 0.19,0.1 0,-0.03 -0.03,-0.1 -0.04,-0.13 -0.02,-0.06 -0.05,-0.2 0.06,-0.17 0.15,0.04 0.32,0.21 0.47,0.28 0.04,0.02 0.08,0.03 0.05,-0.03 -0.03,-0.05 -0.11,-0.18 -0.05,-0.24 0.04,-0.04 0.19,0.02 0.24,0.04 0.07,0.03 0.14,0.06 0.21,0.09 0.07,0.03 0.12,0.02 0.04,-0.04 -0.42,-0.31 -0.79,-0.69 -1.09,-1.12 -0.01,-0.02 -0.03,-0.05 -0.04,-0.07 -0.01,-0.03 -0.04,-0.12 0.06,-0.1 0.12,0.02 0.27,0.13 0.4,0.17 0.04,0.01 0.07,0.02 0.04,-0.02 -0.02,-0.03 -0.09,-0.11 -0.04,-0.14 0.04,-0.03 0.17,0.01 0.21,0.02 0.06,0.02 0.12,0.04 0.18,0.06 0.06,0.02 0.1,0.01 0.04,-0.03 -0.54,-0.28 -0.99,-0.66 -1.28,-1.08 0,-0.03 -0.01,-0.06 0,-0.07 0.01,-0.05 0.14,0.09 0.16,0.1 0.03,0.03 0.08,0.1 0.12,0.09 0,-0.03 -0.02,-0.08 -0.03,-0.11 -0.01,-0.05 -0.03,-0.17 0.05,-0.15 0.09,0.03 0.21,0.18 0.31,0.24 0.02,0.02 0.05,0.03 0.03,-0.02 -0.02,-0.05 -0.07,-0.16 -0.03,-0.21 0.02,-0.04 0.12,0.02 0.16,0.03 0.04,0.03 0.09,0.06 0.14,0.08 0.05,0.03 0.08,0.02 0.02,-0.03 -0.29,-0.29 -0.56,-0.65 -0.77,-1.05 0.01,0 0.01,0 0.02,0 0.08,0.02 0.17,0.14 0.24,0.19 0.03,0.01 0.05,0.02 0.03,-0.02 -0.01,-0.04 -0.05,-0.12 -0.02,-0.16 0.02,-0.03 0.1,0.01 0.12,0.02 0.04,0.02 0.08,0.04 0.11,0.06 0.04,0.03 0.07,0.02 0.02,-0.02 -0.23,-0.22 -0.45,-0.51 -0.61,-0.82 0.05,0.03 0.1,0.11 0.15,0.15 0.02,0.01 0.03,0.02 0.02,-0.02 -0.01,-0.03 -0.04,-0.1 -0.02,-0.13 0.02,-0.02 0.07,0.01 0.09,0.02 0.03,0.02 0.05,0.03 0.08,0.05 0.03,0.02 0.04,0.01 0.01,-0.02 -0.05,-0.06 -0.6,-0.89 -0.44,-0.8 0.04,0.02 0.08,0.11 0.12,0.15 0.01,0.01 0.02,0.02 0.01,-0.01 0,-0.03 -0.02,-0.11 -0.01,-0.14 0.01,-0.02 0.05,0.01 0.06,0.02 0.02,0.02 0.04,0.04 0.06,0.05 0.02,0.02 0.03,0.01 0.01,-0.02 -0.22,-0.35 -0.4,-0.88 -0.46,-1.43 -0.06,0.55 -0.23,1.08 -0.45,1.43 -0.02,0.03 -0.01,0.04 0.01,0.02 0.02,-0.01 0.04,-0.03 0.05,-0.05 0.02,-0.01 0.05,-0.04 0.06,-0.02 0.02,0.03 0,0.11 -0.01,0.14 -0.01,0.03 0,0.02 0.01,0.01 0.04,-0.04 0.09,-0.13 0.12,-0.15 0.17,-0.09 -0.39,0.74 -0.44,0.8 -0.03,0.03 -0.01,0.04 0.02,0.02 0.02,-0.02 0.05,-0.03 0.08,-0.05 0.01,-0.01 0.07,-0.04 0.08,-0.02 0.02,0.03 -0.01,0.1 -0.02,0.13 -0.01,0.04 0.01,0.03 0.02,0.02 0.05,-0.04 0.11,-0.12 0.16,-0.15 -0.17,0.31 -0.38,0.6 -0.62,0.82 -0.04,0.04 -0.02,0.05 0.02,0.02 0.04,-0.02 0.08,-0.04 0.12,-0.06 0.02,-0.01 0.1,-0.05 0.12,-0.02 0.03,0.04 -0.01,0.12 -0.03,0.16 -0.01,0.04 0.01,0.03 0.03,0.02 0.08,-0.05 0.17,-0.17 0.25,-0.19 0,0 0.01,0 0.01,0 -0.2,0.4 -0.47,0.76 -0.77,1.05 -0.05,0.05 -0.02,0.06 0.03,0.03 0.05,-0.02 0.09,-0.05 0.14,-0.08 0.03,-0.01 0.13,-0.07 0.16,-0.03 0.04,0.05 -0.02,0.16 -0.03,0.21 -0.02,0.05 0,0.04 0.03,0.02 0.1,-0.06 0.22,-0.21 0.31,-0.24 0.08,-0.02 0.06,0.1 0.05,0.15 -0.01,0.03 -0.04,0.08 -0.03,0.11 0.04,0.01 0.09,-0.06 0.12,-0.09 0.02,-0.01 0.15,-0.15 0.16,-0.1 0,0.01 0,0.04 -0.01,0.07 -0.28,0.42 -0.74,0.8 -1.27,1.08 -0.07,0.04 -0.03,0.05 0.03,0.03 0.07,-0.02 0.13,-0.04 0.19,-0.06 0.04,-0.01 0.17,-0.05 0.2,-0.02 0.05,0.03 -0.02,0.11 -0.04,0.14 -0.03,0.04 0.01,0.03 0.04,0.02 0.13,-0.04 0.28,-0.15 0.4,-0.17 0.1,-0.02 0.08,0.07 0.06,0.1 0,0.02 -0.03,0.05 -0.03,0.07 -0.3,0.43 -0.68,0.81 -1.09,1.12 -0.08,0.06 -0.04,0.07 0.04,0.04 0.07,-0.03 0.14,-0.06 0.21,-0.09 0.05,-0.02 0.2,-0.08 0.24,-0.04 0.05,0.06 -0.02,0.19 -0.05,0.24 -0.03,0.06 0.01,0.05 0.05,0.03 0.15,-0.07 0.32,-0.24 0.46,-0.28 0.11,-0.03 0.09,0.11 0.07,0.17 -0.01,0.03 -0.05,0.1 -0.04,0.13 0.05,0 0.14,-0.07 0.18,-0.1 0.03,-0.02 0.22,-0.18 0.24,-0.12 0.01,0.04 -0.09,0.23 0.12,0.11 0.04,-0.03 0.09,-0.06 0.15,-0.09 -0.02,0.34 -0.05,0.68 -0.08,1.02l-2.85 0 -2.05 0c-0.04,-0.47 -0.09,-1.04 -0.11,-1.37 0.07,0.04 0.14,0.08 0.19,0.11 0.26,0.15 0.13,-0.08 0.15,-0.14 0.02,-0.06 0.27,0.14 0.3,0.16 0.05,0.04 0.15,0.13 0.23,0.13 0,-0.05 -0.04,-0.13 -0.06,-0.17 -0.02,-0.07 -0.05,-0.24 0.09,-0.21 0.17,0.04 0.39,0.26 0.58,0.35 0.05,0.02 0.1,0.04 0.06,-0.04 -0.04,-0.07 -0.13,-0.22 -0.06,-0.3 0.05,-0.05 0.24,0.02 0.29,0.05 0.09,0.04 0.18,0.07 0.27,0.11 0.09,0.04 0.15,0.02 0.05,-0.05 -0.52,-0.38 -0.99,-0.86 -1.36,-1.39 -0.01,-0.03 -0.04,-0.07 -0.05,-0.09 -0.02,-0.04 -0.04,-0.15 0.08,-0.13 0.15,0.03 0.33,0.16 0.5,0.22 0.04,0.01 0.08,0.02 0.05,-0.02 -0.03,-0.05 -0.11,-0.14 -0.05,-0.19 0.04,-0.03 0.2,0.01 0.25,0.03 0.08,0.02 0.15,0.05 0.23,0.07 0.08,0.02 0.13,0.01 0.05,-0.03 -0.67,-0.35 -1.24,-0.82 -1.59,-1.35 -0.01,-0.03 -0.01,-0.07 -0.01,-0.09 0.01,-0.06 0.18,0.11 0.2,0.13 0.04,0.04 0.1,0.12 0.15,0.11 0,-0.03 -0.03,-0.1 -0.04,-0.14 -0.01,-0.06 -0.03,-0.21 0.06,-0.18 0.12,0.03 0.26,0.22 0.39,0.3 0.03,0.02 0.07,0.03 0.04,-0.03 -0.02,-0.06 -0.09,-0.2 -0.04,-0.26 0.04,-0.05 0.16,0.02 0.2,0.04 0.06,0.03 0.12,0.06 0.18,0.1 0.06,0.03 0.1,0.02 0.03,-0.05 -0.37,-0.35 -0.71,-0.8 -0.97,-1.3 0.01,-0.01 0.02,0 0.03,0 0.09,0.03 0.2,0.17 0.3,0.23 0.03,0.01 0.06,0.03 0.04,-0.02 -0.02,-0.05 -0.07,-0.15 -0.04,-0.2 0.03,-0.04 0.13,0.01 0.16,0.03 0.05,0.02 0.09,0.05 0.14,0.07 0.05,0.03 0.08,0.02 0.03,-0.03 -0.3,-0.28 -0.57,-0.63 -0.77,-1.02 0.06,0.04 0.13,0.14 0.19,0.18 0.02,0.02 0.04,0.03 0.02,-0.02 -0.01,-0.03 -0.04,-0.12 -0.02,-0.16 0.02,-0.03 0.09,0.01 0.11,0.02 0.03,0.03 0.07,0.05 0.1,0.07 0.03,0.02 0.05,0.01 0.02,-0.03 -0.07,-0.07 -0.76,-1.11 -0.55,-1 0.04,0.02 0.1,0.14 0.14,0.19 0.02,0.01 0.03,0.02 0.02,-0.02 -0.01,-0.04 -0.03,-0.12 -0.02,-0.16 0.02,-0.03 0.07,0.01 0.08,0.02 0.02,0.02 0.05,0.04 0.07,0.07 0.02,0.02 0.04,0.01 0.01,-0.03 -0.27,-0.44 -0.49,-1.1 -0.57,-1.79 -0.07,0.69 -0.29,1.35 -0.56,1.79 -0.03,0.04 -0.01,0.05 0.01,0.03 0.02,-0.03 0.05,-0.05 0.07,-0.07 0.01,-0.01 0.06,-0.05 0.07,-0.02 0.02,0.04 0,0.12 -0.01,0.16 -0.01,0.04 0,0.03 0.02,0.02 0.04,-0.05 0.1,-0.17 0.14,-0.19 0.21,-0.11 -0.48,0.93 -0.55,1 -0.03,0.04 -0.01,0.05 0.02,0.03 0.03,-0.02 0.07,-0.04 0.1,-0.07 0.02,-0.01 0.09,-0.05 0.11,-0.02 0.02,0.04 -0.01,0.13 -0.03,0.16 -0.01,0.05 0.01,0.04 0.03,0.02 0.06,-0.04 0.13,-0.14 0.19,-0.18 -0.2,0.39 -0.47,0.74 -0.77,1.02 -0.05,0.05 -0.02,0.06 0.03,0.03 0.04,-0.02 0.09,-0.05 0.14,-0.07 0.03,-0.02 0.13,-0.07 0.15,-0.03 0.04,0.05 -0.01,0.15 -0.03,0.2 -0.02,0.05 0.01,0.03 0.04,0.02 0.09,-0.06 0.21,-0.2 0.3,-0.23 0.01,0 0.02,-0.01 0.02,0 -0.26,0.5 -0.59,0.95 -0.96,1.3 -0.07,0.07 -0.03,0.08 0.03,0.05 0.06,-0.04 0.12,-0.07 0.18,-0.1 0.04,-0.02 0.16,-0.09 0.2,-0.04 0.05,0.06 -0.02,0.2 -0.04,0.26 -0.03,0.06 0.01,0.05 0.04,0.03 0.12,-0.08 0.27,-0.27 0.39,-0.3 0.09,-0.03 0.07,0.12 0.05,0.18 0,0.04 -0.03,0.11 -0.03,0.14 0.05,0.01 0.11,-0.07 0.15,-0.11 0.02,-0.02 0.18,-0.19 0.2,-0.13 0,0.02 0,0.06 -0.01,0.09 -0.35,0.53 -0.92,1 -1.59,1.35 -0.08,0.04 -0.03,0.05 0.05,0.03 0.07,-0.02 0.15,-0.05 0.23,-0.07 0.05,-0.02 0.21,-0.06 0.25,-0.03 0.06,0.05 -0.02,0.14 -0.05,0.19 -0.03,0.04 0.01,0.03 0.05,0.02 0.17,-0.06 0.35,-0.19 0.5,-0.22 0.12,-0.02 0.1,0.09 0.08,0.13 -0.01,0.02 -0.04,0.06 -0.05,0.09 -0.37,0.53 -0.84,1.01 -1.36,1.39 -0.1,0.07 -0.04,0.09 0.05,0.05 0.09,-0.04 0.18,-0.07 0.27,-0.11 0.05,-0.03 0.24,-0.1 0.29,-0.05 0.07,0.08 -0.03,0.23 -0.06,0.3 -0.04,0.08 0.01,0.06 0.06,0.04 0.19,-0.09 0.41,-0.31 0.58,-0.35 0.14,-0.03 0.11,0.14 0.09,0.21 -0.02,0.04 -0.06,0.12 -0.06,0.17 0.08,0 0.18,-0.09 0.23,-0.13 0.03,-0.02 0.28,-0.22 0.3,-0.16 0.02,0.06 -0.11,0.29 0.15,0.14 0.05,-0.03 0.12,-0.07 0.18,-0.11 -0.02,0.45 -0.06,0.91 -0.1,1.37l-4.04 0c-0.03,-0.32 -0.06,-0.69 -0.07,-0.91 0.04,0.02 0.09,0.05 0.12,0.07 0.17,0.1 0.09,-0.05 0.1,-0.09 0.02,-0.05 0.18,0.09 0.2,0.1 0.04,0.03 0.11,0.09 0.15,0.09 0.01,-0.03 -0.02,-0.08 -0.03,-0.11 -0.02,-0.05 -0.04,-0.17 0.06,-0.14 0.11,0.02 0.26,0.17 0.38,0.23 0.04,0.01 0.07,0.03 0.05,-0.02 -0.03,-0.05 -0.09,-0.16 -0.04,-0.21 0.03,-0.03 0.16,0.02 0.19,0.03 0.06,0.03 0.12,0.06 0.18,0.08 0.07,0.03 0.1,0.02 0.04,-0.03 -0.35,-0.26 -0.67,-0.58 -0.92,-0.94 0,-0.02 -0.02,-0.04 -0.03,-0.06 -0.01,-0.02 -0.03,-0.09 0.05,-0.08 0.1,0.02 0.23,0.11 0.34,0.14 0.03,0.01 0.06,0.02 0.03,-0.01 -0.02,-0.03 -0.07,-0.1 -0.03,-0.13 0.03,-0.02 0.14,0.01 0.17,0.02 0.05,0.02 0.1,0.04 0.15,0.05 0.06,0.02 0.09,0.01 0.03,-0.02 -0.44,-0.23 -0.82,-0.55 -1.06,-0.9 -0.01,-0.03 -0.01,-0.05 -0.01,-0.07 0.01,-0.03 0.12,0.08 0.13,0.09 0.03,0.03 0.07,0.08 0.11,0.08 0,-0.03 -0.02,-0.07 -0.03,-0.1 -0.01,-0.04 -0.02,-0.14 0.04,-0.12 0.08,0.02 0.18,0.15 0.26,0.2 0.02,0.01 0.05,0.03 0.03,-0.02 -0.02,-0.04 -0.06,-0.13 -0.03,-0.17 0.03,-0.04 0.11,0.01 0.14,0.02 0.04,0.02 0.07,0.05 0.12,0.07 0.04,0.02 0.06,0.01 0.02,-0.03 -0.25,-0.24 -0.48,-0.54 -0.65,-0.88 0,0 0.01,0 0.02,0 0.06,0.02 0.13,0.12 0.2,0.16 0.02,0.01 0.04,0.02 0.02,-0.02 -0.01,-0.03 -0.04,-0.1 -0.02,-0.13 0.02,-0.03 0.08,0.01 0.11,0.02 0.03,0.02 0.06,0.03 0.09,0.05 0.03,0.02 0.05,0.01 0.02,-0.02 -0.2,-0.19 -0.38,-0.42 -0.52,-0.68 0.04,0.02 0.09,0.09 0.13,0.12 0.01,0 0.03,0.01 0.02,-0.02 -0.01,-0.02 -0.04,-0.08 -0.02,-0.11 0.01,-0.02 0.06,0.01 0.07,0.02 0.03,0.01 0.05,0.03 0.07,0.04 0.02,0.02 0.04,0.01 0.01,-0.02 -0.04,-0.05 -0.5,-0.74 -0.37,-0.67 0.03,0.02 0.07,0.1 0.1,0.13 0.01,0.01 0.02,0.02 0.01,-0.01 0,-0.03 -0.02,-0.09 -0.01,-0.11 0.01,-0.02 0.04,0 0.05,0.01 0.02,0.02 0.03,0.03 0.05,0.05 0.01,0.01 0.02,0 0.01,-0.02 -0.19,-0.29 -0.33,-0.74 -0.38,-1.2 -0.05,0.46 -0.2,0.91 -0.38,1.2 -0.02,0.02 -0.01,0.03 0,0.02 0.02,-0.02 0.04,-0.03 0.05,-0.05 0.01,-0.01 0.04,-0.03 0.05,-0.01 0.01,0.02 0,0.08 -0.01,0.11 -0.01,0.03 0,0.02 0.01,0.01 0.03,-0.03 0.07,-0.11 0.1,-0.13 0.14,-0.07 -0.32,0.62 -0.37,0.67 -0.02,0.03 -0.01,0.04 0.01,0.02 0.03,-0.01 0.05,-0.03 0.07,-0.04 0.01,-0.01 0.06,-0.04 0.07,-0.02 0.02,0.03 0,0.09 -0.01,0.11 -0.01,0.03 0,0.02 0.01,0.02 0.04,-0.03 0.09,-0.1 0.13,-0.12 -0.14,0.26 -0.31,0.49 -0.51,0.68 -0.04,0.03 -0.02,0.04 0.01,0.02 0.04,-0.02 0.07,-0.03 0.1,-0.05 0.02,-0.01 0.08,-0.05 0.1,-0.02 0.03,0.03 -0.01,0.1 -0.02,0.13 -0.01,0.04 0.01,0.03 0.02,0.02 0.07,-0.04 0.15,-0.14 0.21,-0.16 0,0 0.01,0 0.01,0 -0.17,0.34 -0.39,0.64 -0.64,0.88 -0.05,0.04 -0.02,0.05 0.02,0.03 0.04,-0.02 0.08,-0.05 0.12,-0.07 0.02,-0.01 0.11,-0.06 0.13,-0.02 0.03,0.04 -0.01,0.13 -0.03,0.17 -0.01,0.05 0.01,0.03 0.03,0.02 0.09,-0.05 0.18,-0.18 0.26,-0.2 0.07,-0.02 0.05,0.08 0.04,0.12 -0.01,0.03 -0.03,0.07 -0.02,0.1 0.03,0 0.07,-0.05 0.1,-0.08 0.01,-0.01 0.12,-0.12 0.13,-0.09 0,0.02 0,0.04 0,0.07 -0.24,0.35 -0.62,0.67 -1.07,0.9 -0.06,0.03 -0.02,0.04 0.03,0.02 0.05,-0.01 0.1,-0.03 0.15,-0.05 0.04,-0.01 0.15,-0.04 0.18,-0.02 0.04,0.03 -0.02,0.1 -0.04,0.13 -0.02,0.03 0.01,0.02 0.04,0.01 0.1,-0.03 0.23,-0.12 0.33,-0.14 0.08,-0.01 0.06,0.06 0.05,0.08 -0.01,0.02 -0.02,0.04 -0.03,0.06 -0.25,0.36 -0.56,0.68 -0.91,0.94 -0.07,0.05 -0.03,0.06 0.03,0.03 0.06,-0.02 0.12,-0.05 0.18,-0.08 0.04,-0.01 0.16,-0.06 0.2,-0.03 0.04,0.05 -0.02,0.16 -0.04,0.21 -0.03,0.05 0,0.03 0.04,0.02 0.12,-0.06 0.27,-0.21 0.39,-0.23 0.09,-0.03 0.07,0.09 0.05,0.14 -0.01,0.03 -0.04,0.08 -0.03,0.11 0.05,0 0.11,-0.06 0.15,-0.09 0.02,-0.01 0.19,-0.15 0.2,-0.1 0.01,0.04 -0.07,0.19 0.1,0.09 0.04,-0.02 0.08,-0.05 0.13,-0.07 -0.02,0.3 -0.04,0.6 -0.07,0.91l-8.28 0 7.56 -7.61 7.56 -7.61 6.08 6.11c0.28,-0.25 0.53,-0.54 0.75,-0.85 0.01,-0.02 0.03,-0.05 0.04,-0.07 0.01,-0.04 0.04,-0.12 -0.07,-0.1 -0.12,0.02 -0.28,0.13 -0.41,0.17 -0.04,0.01 -0.08,0.02 -0.05,-0.01 0.02,-0.04 0.1,-0.12 0.04,-0.16 -0.03,-0.03 -0.17,0.01 -0.21,0.02 -0.07,0.02 -0.13,0.04 -0.19,0.06 -0.07,0.02 -0.11,0.01 -0.04,-0.02 0.56,-0.29 1.03,-0.69 1.33,-1.13 0.01,-0.03 0.01,-0.07 0.01,-0.08 -0.01,-0.05 -0.15,0.09 -0.16,0.11 -0.04,0.03 -0.09,0.09 -0.13,0.09 -0.01,-0.03 0.02,-0.09 0.03,-0.12 0.01,-0.05 0.03,-0.18 -0.05,-0.15 -0.1,0.03 -0.22,0.19 -0.33,0.25 -0.03,0.02 -0.06,0.03 -0.03,-0.02 0.02,-0.05 0.07,-0.17 0.03,-0.22 -0.03,-0.04 -0.13,0.01 -0.16,0.03 -0.06,0.03 -0.1,0.06 -0.16,0.09 -0.05,0.02 -0.08,0.01 -0.02,-0.04 0.31,-0.3 0.59,-0.68 0.81,-1.1 -0.01,0 -0.01,0 -0.02,0 -0.08,0.02 -0.18,0.15 -0.26,0.19 -0.02,0.02 -0.04,0.03 -0.03,-0.01 0.02,-0.04 0.06,-0.13 0.03,-0.17 -0.02,-0.03 -0.1,0.01 -0.13,0.02 -0.04,0.02 -0.08,0.05 -0.12,0.07 -0.04,0.02 -0.06,0.01 -0.02,-0.03 0.25,-0.23 0.47,-0.53 0.65,-0.86 -0.05,0.03 -0.11,0.12 -0.17,0.16 -0.01,0.01 -0.03,0.02 -0.02,-0.02 0.02,-0.03 0.05,-0.1 0.02,-0.14 -0.01,-0.02 -0.07,0.01 -0.09,0.02 -0.03,0.02 -0.05,0.04 -0.08,0.06 -0.03,0.02 -0.05,0.01 -0.02,-0.03 0.06,-0.06 0.64,-0.93 0.47,-0.84 -0.04,0.02 -0.09,0.12 -0.13,0.16 -0.01,0.01 -0.02,0.02 -0.01,-0.01 0.01,-0.03 0.03,-0.11 0.01,-0.14 -0.01,-0.03 -0.05,0.01 -0.06,0.02 -0.02,0.02 -0.04,0.03 -0.06,0.05 -0.02,0.02 -0.03,0.01 -0.01,-0.02z"/>
 </g>
</svg>
